# xmcd
#
# Track frame offsets:
# 150
# 12046
# 23016
# 33333
# 47356
# 63464
# 76560
# 95448
# 110402
# 122722
# 142655
# 158628
# 170625
# 188949
#
# Disc length: 2671 seconds
#
# Revision: 0
# Processed by: cddbd v1.5.1PL0 Copyright (c) Steve Scherf et al.
# Submitted via: Axialis_AX_CDPlayer 2.6
#
DISCID=9d0a6d0e
DTITLE=Nick Curran and The Nitelifes - Player !
DYEAR=2004
DGENRE=Blues
TTITLE0=Player 
TTITLE1=Honey Bee 
TTITLE2=What About Love 
TTITLE3=Evenin' 
TTITLE4=She's Evil 
TTITLE5=The Groovy Jam 
TTITLE6=No Fun 
TTITLE7=The Stalker 
TTITLE8=Down Boy Down 
TTITLE9=Leavin' 
TTITLE10=Good Luck 
TTITLE11=Come Back 
TTITLE12=Crazy Mixed Up World 
TTITLE13=Heeby Jeebies 
EXTD=
EXTT0=
EXTT1=
EXTT2=
EXTT3=
EXTT4=
EXTT5=
EXTT6=
EXTT7=
EXTT8=
EXTT9=
EXTT10=
EXTT11=
EXTT12=
EXTT13=
PLAYORDER=
